# xmcd
#
# Track frame offsets:
#	150
#	18467
#	38810
#	50365
#	59762
#	73002
#	86467
#	95022
#	110585
#	122772
#
# Disc length: 1923 seconds
#
# Revision: 0
# Processed by: cddbd v1.5.2PL0 Copyright (c) Steve Scherf et al.
# Submitted via: EasyCDDAExtractor 10.2.0.1
#
DISCID=8a07810a
DTITLE=Sweet Anointed Singers - In God' Storehouse
DYEAR=1999
DGENRE=Gospel
TTITLE0=In God's Storehouse
TTITLE1=What Shall The End Be
TTITLE2=He's The Shelter From The Storm
TTITLE3=Jesus Is The Rock
TTITLE4=I'm Not Living My Life
TTITLE5=Calvary's Crimson Flow
TTITLE6=Let Us Run Together
TTITLE7=In The Presance Of Jesus
TTITLE8=God Is Greater
TTITLE9=Jesus Use Me
EXTD=
EXTT0=
EXTT1=
EXTT2=
EXTT3=
EXTT4=
EXTT5=
EXTT6=
EXTT7=
EXTT8=
EXTT9=
PLAYORDER=
